<svg width="662" height="285" viewBox="0 0 662 285" fill="none" xmlns="http://www.w3.org/2000/svg">
<path d="M257.877 143.246C261.999 143.246 265.019 142.085 266.935 139.762C268.851 137.44 269.809 134.682 269.809 131.488V125.391C269.809 121.617 268.59 118.946 266.151 117.378C263.712 115.752 260.954 114.94 257.877 114.94H251.083V143.246H257.877ZM268.59 84.3683C268.59 80.8844 267.632 78.4747 265.716 77.1392C263.799 75.7457 261.041 75.0489 257.441 75.0489H251.083V100.22H258.138C261.506 100.22 264.09 98.9136 265.89 96.3007C267.69 93.6297 268.59 90.378 268.59 86.5457V84.3683ZM263.799 161.101C259.27 161.101 253.406 160.985 246.206 160.753C239.006 160.52 233.838 160.375 230.702 160.317H222.341V58.2391H237.409C241.067 58.2391 245.248 58.123 249.951 57.8907C254.654 57.6004 258.051 57.4552 260.141 57.4552C266.935 57.4552 272.654 58.0068 277.299 59.1101C282.003 60.2133 285.69 61.8682 288.361 64.0746C291.032 66.2811 292.919 68.8359 294.022 71.7392C295.183 74.6424 295.764 78.0973 295.764 82.1038C295.764 88.2587 294.342 93.5426 291.496 97.9555C288.651 102.368 284.529 105.127 279.129 106.23C292.832 107.449 299.684 115.491 299.684 130.356C299.684 134.827 299.016 138.891 297.68 142.549C296.345 146.149 294.283 149.372 291.496 152.217C288.767 155.004 285.051 157.182 280.348 158.75C275.645 160.317 270.128 161.101 263.799 161.101ZM351.371 148.733C351.023 149.546 350.297 150.62 349.194 151.956C348.148 153.291 346.755 154.772 345.013 156.398C343.271 157.966 341.123 159.301 338.568 160.404C336.013 161.566 333.429 162.146 330.816 162.146C322.629 162.146 316.764 159.708 313.222 154.83C309.739 149.953 307.997 141.824 307.997 130.443V99.4362L304.948 96.3007V86.2845H336.565V135.93C336.506 138.543 336.942 140.488 337.871 141.766C338.8 142.985 340.484 143.595 342.923 143.595C343.271 143.595 343.59 143.595 343.881 143.595C344.171 143.536 344.461 143.478 344.752 143.42C345.042 143.304 345.274 143.217 345.448 143.159C345.681 143.101 345.942 143.014 346.232 142.898C346.523 142.724 346.755 142.578 346.929 142.462C347.103 142.346 347.336 142.201 347.626 142.027C347.916 141.795 348.119 141.62 348.236 141.504C348.41 141.388 348.642 141.214 348.932 140.982C349.281 140.691 349.542 140.488 349.716 140.372V99.4362L345.013 96.3007V86.2845H378.197V160.317H354.071L351.371 148.733ZM425.889 190.279C419.908 190.279 414.276 189.408 408.992 187.666C403.708 185.924 399.847 183.572 397.408 180.611L401.937 171.204C405.305 173.121 410.647 174.079 417.963 174.079C420.286 174.079 422.289 173.817 423.973 173.295C425.657 172.772 427.166 171.843 428.502 170.508C429.837 169.23 430.854 167.401 431.55 165.021C432.247 162.64 432.625 159.708 432.683 156.224V148.733L431.812 150.127C431.231 151.056 430.331 152.188 429.112 153.524C427.95 154.801 426.615 156.108 425.105 157.443C423.595 158.72 421.737 159.824 419.531 160.753C417.383 161.682 415.176 162.146 412.912 162.146C404.26 162.146 398.163 159.737 394.621 154.917C391.079 150.04 389.308 141.853 389.308 130.356V99.4362L386.173 96.3007V86.2845H417.876V135.843C417.876 138.514 418.283 140.488 419.095 141.766C419.966 142.985 421.679 143.595 424.234 143.595C424.989 143.595 425.744 143.478 426.499 143.246C427.254 142.956 427.979 142.578 428.676 142.114C429.431 141.649 430.215 141.069 431.028 140.372V99.4362L426.237 96.3007V86.2845H459.422V150.127C459.422 162.959 456.692 172.859 451.234 179.827C445.776 186.795 437.328 190.279 425.889 190.279ZM510.174 115.288C510.174 107.914 509.797 102.688 509.042 99.6104C508.287 96.5329 506.893 94.9942 504.861 94.9942C503.119 94.9942 501.697 95.3136 500.593 95.9523C499.49 96.5329 498.677 97.491 498.155 98.8265C497.632 100.104 497.284 101.439 497.11 102.833C496.993 104.168 496.935 105.881 496.935 107.972V115.288H510.174ZM503.206 162.146C496.703 162.146 491.042 161.159 486.222 159.185C481.461 157.211 477.687 154.453 474.9 150.911C472.171 147.369 470.167 143.391 468.89 138.978C467.613 134.507 466.974 129.543 466.974 124.085C466.974 111.078 470.284 101.236 476.903 94.5587C483.522 87.8812 492.784 84.5425 504.687 84.5425C516.126 84.5425 524.313 87.2425 529.248 92.6426C534.184 97.9845 536.652 106.607 536.652 118.511V128.178H496.848V129.833C496.848 133.259 497.197 136.075 497.893 138.282C498.648 140.488 499.722 142.114 501.116 143.159C502.51 144.204 503.932 144.901 505.384 145.249C506.835 145.598 508.606 145.772 510.697 145.772C512.729 145.772 514.906 145.511 517.229 144.988C519.61 144.466 521.99 143.653 524.371 142.549C526.81 141.446 528.842 140.14 530.468 138.63L535.607 147.427C533.458 150.911 530.294 153.843 526.113 156.224C521.99 158.546 518.013 160.114 514.181 160.927C510.348 161.74 506.69 162.146 503.206 162.146ZM574.219 160.317H546.087V103.965L540.861 100.743V90.9006L559.587 86.2845H566.642L569.168 107.014C571.548 92.7877 579.184 85.6748 592.074 85.6748C593.526 85.6748 595.036 85.9361 596.603 86.4587L593.642 117.465C592.423 116.362 589.752 115.81 585.629 115.81C579.706 115.81 575.903 117.378 574.219 120.514V160.317ZM626.406 162.146C620.948 162.146 615.432 161.246 609.858 159.446C604.284 157.588 600.713 155.788 599.145 154.046L601.409 140.024C603.384 141.94 606.664 143.595 611.251 144.988C615.897 146.382 620.629 147.078 625.448 147.078C628.932 147.078 631.313 146.643 632.59 145.772C633.926 144.901 634.593 143.682 634.593 142.114C634.593 140.604 633.432 139.269 631.11 138.107C628.787 136.888 625.013 135.494 619.787 133.927C606.258 129.862 599.493 121.443 599.493 108.668C599.493 103.443 601.003 98.9717 604.022 95.2555C607.042 91.4813 610.903 88.7522 615.606 87.0683C620.31 85.3845 625.564 84.5425 631.371 84.5425C641.3 84.5425 648.616 86.3716 653.319 90.0297C654.365 91.0168 654.887 91.5103 654.887 91.5103L651.055 103.965C647.223 100.191 641.939 98.3039 635.203 98.3039C629.687 98.3039 626.929 99.9297 626.929 103.181C626.929 104.11 627.132 104.894 627.539 105.533C627.945 106.114 628.613 106.636 629.542 107.101C630.529 107.507 631.487 107.856 632.416 108.146C633.345 108.378 634.652 108.727 636.335 109.191C638.019 109.598 639.471 109.975 640.69 110.323C647.484 112.588 652.419 115.781 655.497 119.904C658.574 124.027 660.113 129.165 660.113 135.32C660.113 153.204 648.877 162.146 626.406 162.146Z" fill="#005596"/>
<path d="M251.665 283H222.836V180.922H280.32V203.132L251.665 201.39V225.08H275.181V246.68L251.665 244.938V283ZM288.351 283V226.648L283.125 223.425V214.106L301.851 208.967H316.397V283H288.351ZM300.98 200.954L286.696 186.583V183.535L300.98 169.251H304.29L319.184 183.535V186.583L304.29 200.954H300.98ZM356.545 283H328.413V226.648L323.187 223.425V213.583L341.913 208.967H348.968L351.493 229.696C353.874 215.47 361.51 208.358 374.4 208.358C375.852 208.358 377.361 208.619 378.929 209.141L375.968 240.148C374.748 239.045 372.077 238.493 367.955 238.493C362.032 238.493 358.229 240.061 356.545 243.196V283ZM408.732 284.829C403.274 284.829 397.758 283.929 392.184 282.129C386.609 280.271 383.038 278.471 381.471 276.729L383.735 262.706C385.709 264.622 388.99 266.277 393.577 267.671C398.222 269.064 402.955 269.761 407.774 269.761C411.258 269.761 413.639 269.326 414.916 268.455C416.251 267.584 416.919 266.364 416.919 264.797C416.919 263.287 415.758 261.951 413.435 260.79C411.113 259.571 407.338 258.177 402.113 256.609C388.583 252.545 381.819 244.126 381.819 231.351C381.819 226.125 383.329 221.654 386.348 217.938C389.367 214.164 393.229 211.435 397.932 209.751C402.635 208.067 407.89 207.225 413.697 207.225C423.626 207.225 430.942 209.054 435.645 212.712C436.69 213.699 437.213 214.193 437.213 214.193L433.381 226.648C429.548 222.874 424.264 220.987 417.529 220.987C412.013 220.987 409.255 222.612 409.255 225.864C409.255 226.793 409.458 227.577 409.864 228.216C410.271 228.796 410.938 229.319 411.868 229.783C412.855 230.19 413.813 230.538 414.742 230.829C415.671 231.061 416.977 231.409 418.661 231.874C420.345 232.28 421.797 232.658 423.016 233.006C429.81 235.271 434.745 238.464 437.823 242.587C440.9 246.709 442.439 251.848 442.439 258.003C442.439 275.887 431.203 284.829 408.732 284.829ZM470.253 284.829C462.415 284.829 456.928 282.477 453.792 277.774C450.715 273.071 449.176 265.116 449.176 253.909V224.296H443.166V212.19L453.444 208.967L462.328 188.674H477.657V208.967H491.941V224.296H477.395V256.697C477.395 261.342 478.063 264.419 479.399 265.929C480.734 267.439 482.795 268.193 485.583 268.193C486.802 268.193 487.905 268.048 488.892 267.758C489.879 267.468 490.692 267.061 491.331 266.539V278.384C490.46 279.255 489.328 280.126 487.934 280.997C486.541 281.81 484.218 282.652 480.966 283.523C477.773 284.394 474.202 284.829 470.253 284.829Z" fill="#005596"/>
<path d="M37.1289 108.787V86.0144C37.1289 67.1493 52.4222 51.8561 71.2873 51.8561C80.0364 51.8561 88.0158 55.1451 94.0595 60.5539C100.103 55.1451 108.084 51.8561 116.832 51.8561C135.697 51.8561 150.99 67.1493 150.99 86.0144V108.787H168.069C177.502 108.787 185.148 116.433 185.148 125.866V234.034C185.148 250.053 176.879 264.14 164.374 272.259L158.161 271.167C149.344 269.619 140.246 264.757 133.399 257.818C126.561 250.889 122.525 242.488 122.525 234.034V108.787H133.911V86.0144C133.911 76.5818 126.264 68.9353 116.832 68.9353C111.537 68.9353 106.806 71.3441 103.673 75.1255C104.823 78.5455 105.446 82.2072 105.446 86.0144V234.034C105.446 248.026 112.072 260.521 121.242 269.814C124.901 273.523 129.056 276.818 133.525 279.578H48.515C23.3615 279.578 2.97058 259.187 2.97058 234.034V125.866C2.97058 116.433 10.6172 108.787 20.0498 108.787H37.1289ZM54.2081 86.0144V108.787H88.3665V86.0144C88.3665 76.5818 80.7195 68.9353 71.2873 68.9353C61.8547 68.9353 54.2081 76.5818 54.2081 86.0144Z" fill="#005596"/>
<path d="M0.684326 129.468C0.684326 117.923 10.0431 108.565 21.5877 108.565H164.247C175.792 108.565 185.151 117.923 185.151 129.468V237.772C185.151 260.861 166.433 279.578 143.344 279.578H42.4911C19.4018 279.578 0.684326 260.861 0.684326 237.772V129.468Z" fill="#005596"/>
<path d="M78.084 285V187.172L55.3829 189.681V162.966C60.0653 162.297 63.9951 161.545 67.1724 160.709C70.3498 159.872 73.6943 158.576 77.2061 156.82C80.7178 155.065 83.7279 152.64 86.2363 149.546C88.7447 146.452 90.7933 142.648 92.3819 138.133H120.1V285H78.084Z" fill="white"/>
</svg>
